<svg width="24" height="24" viewBox="0 0 24 24" fill="none" xmlns="http://www.w3.org/2000/svg">
<path d="M10.0152 6C10.7355 6 11.4017 6.09426 12.0139 6.28277C12.6381 6.4595 13.1722 6.73638 13.6164 7.1134C14.0605 7.49043 14.4086 7.9676 14.6607 8.54492C14.9128 9.11046 15.0388 9.78792 15.0388 10.5773C15.0388 11.3314 14.9308 11.9912 14.7147 12.5567C14.4986 13.1222 14.1925 13.5994 13.7964 13.9882C13.4003 14.3652 12.9201 14.648 12.356 14.8365C11.8038 15.025 11.1856 15.1193 10.5014 15.1193C9.98524 15.1193 9.50509 15.0427 9.06095 14.8895V17.2931C9.06095 17.6233 8.74885 17.894 8.48477 17.9293C8.22069 17.9764 7.95061 18 7.67452 18C7.41044 18 7.17036 17.9823 6.9543 17.947C6.75023 17.9116 6.57618 17.8409 6.43213 17.7349C6.28809 17.6289 6.18006 17.4816 6.10803 17.2931C6.03601 17.1163 6 16.8807 6 16.5862V8.10309C6 7.78498 6.06602 7.52577 6.19806 7.32548C6.34211 7.12518 6.53417 6.94256 6.77424 6.77761C7.14636 6.54197 7.6085 6.35346 8.16067 6.21208C8.71284 6.07069 9.33103 6 10.0152 6ZM10.0513 12.7511C11.2876 12.7511 11.9058 12.0265 11.9058 10.5773C11.9058 9.82327 11.7498 9.26362 11.4377 8.89838C11.1376 8.53314 10.6995 8.35052 10.1233 8.35052C9.89521 8.35052 9.69115 8.37997 9.51109 8.43888C9.33103 8.48601 9.17499 8.54492 9.04294 8.61561V12.5037C9.18699 12.5744 9.34304 12.6333 9.51109 12.6804C9.67914 12.7275 9.8592 12.7511 10.0513 12.7511Z" fill="#E1A54A"/>
<path d="M18 16.5467C18 17.3494 17.3371 18 16.5194 18C15.7017 18 15.0388 17.3494 15.0388 16.5467C15.0388 15.7441 15.7017 15.0935 16.5194 15.0935C17.3371 15.0935 18 15.7441 18 16.5467Z" fill="#E1A54A"/>
</svg>
