<svg width="12" height="12" viewBox="0 0 12 12" fill="none" xmlns="http://www.w3.org/2000/svg">
<rect width="12" height="12" rx="4" transform="matrix(-1 0 0 1 12 0)" fill="#2775CA"/>
<path d="M7.27988 6.67873C7.27988 6.00004 6.87266 5.76733 6.0582 5.67039C5.47644 5.59281 5.36009 5.43769 5.36009 5.16617C5.36009 4.89465 5.55403 4.72017 5.94185 4.72017C6.2909 4.72017 6.48483 4.83652 6.58178 5.1274C6.60119 5.18558 6.65936 5.22435 6.71754 5.22435H7.02778C7.10536 5.22435 7.16353 5.16617 7.16353 5.08863V5.06923C7.08595 4.64259 6.7369 4.31294 6.2909 4.27418V3.80877C6.2909 3.73119 6.23273 3.67301 6.13578 3.65361H5.8449C5.76732 3.65361 5.70915 3.71178 5.68974 3.80877V4.25477C5.10798 4.33235 4.73957 4.72017 4.73957 5.20499C4.73957 5.84492 5.12739 6.09698 5.94185 6.19397C6.48483 6.29091 6.65936 6.40726 6.65936 6.71755C6.65936 7.02783 6.38784 7.24113 6.01943 7.24113C5.51521 7.24113 5.34069 7.02779 5.28251 6.73691C5.26315 6.65937 5.20497 6.62056 5.1468 6.62056H4.81711C4.73957 6.62056 4.68139 6.67873 4.68139 6.75632V6.77573C4.75893 7.26049 5.06921 7.60954 5.70915 7.70653V8.17194C5.70915 8.24948 5.76732 8.30765 5.86426 8.32706H6.15514C6.23273 8.32706 6.2909 8.26888 6.31031 8.17194V7.70653C6.89206 7.60954 7.27988 7.20231 7.27988 6.67873Z" fill="white"/>
<path d="M5.01102 8.71488C3.49845 8.17194 2.72276 6.48485 3.28516 4.99165C3.57604 4.17719 4.21597 3.55666 5.01102 3.26579C5.0886 3.22702 5.12737 3.16884 5.12737 3.07185V2.80038C5.12737 2.7228 5.0886 2.66462 5.01102 2.64526C4.99161 2.64526 4.95284 2.64526 4.93343 2.66462C3.09122 3.24638 2.08283 5.20499 2.66459 7.0472C3.01364 8.13312 3.84751 8.96699 4.93343 9.31604C5.01102 9.35481 5.0886 9.31604 5.10796 9.23846C5.12737 9.2191 5.12737 9.19969 5.12737 9.16092V8.88941C5.12737 8.83123 5.06919 8.75369 5.01102 8.71488ZM7.06657 2.66462C6.98898 2.62586 6.9114 2.66462 6.89204 2.74221C6.87263 2.76161 6.87263 2.78098 6.87263 2.81979V3.09126C6.87263 3.16884 6.93081 3.24638 6.98898 3.28519C8.50155 3.82814 9.27724 5.51523 8.71484 7.00843C8.42396 7.82289 7.78403 8.44341 6.98898 8.73429C6.9114 8.77306 6.87263 8.83123 6.87263 8.92822V9.19969C6.87263 9.27727 6.9114 9.33545 6.98898 9.35481C7.00839 9.35481 7.04716 9.35481 7.06657 9.33545C8.90878 8.7537 9.91717 6.79509 9.33541 4.95288C8.98636 3.84754 8.13309 3.01368 7.06657 2.66462Z" fill="white"/>
</svg>
